<?xml version="1.0" standalone="no"?><!-- Generator: Gravit.io --><svg xmlns="http://www.w3.org/2000/svg" xmlns:xlink="http://www.w3.org/1999/xlink" style="isolation:isolate" viewBox="573 -480 592.618 732" width="592.618" height="732"><rect x="792" y="-420" width="192" height="672" transform="matrix(1,0,0,1,0,0)" fill="rgb(232,232,232)"/><rect x="576" y="-420" width="192" height="672" transform="matrix(1,0,0,1,0,0)" fill="rgb(232,232,232)"/><rect x="1008" y="-420" width="96" height="672" transform="matrix(1,0,0,1,0,0)" fill="rgb(232,232,232)"/><g transform="matrix(1,0,0,1,1038.5,-411.236)"><text transform="matrix(1,0,0,1,0,21.377)" style="font-family:&quot;Open Sans&quot;;font-weight:400;font-size:20px;font-style:normal;fill:#000000;stroke:none;">PDI</text></g><g transform="matrix(0,-1,1,0,1138.382,-66)"><text transform="matrix(1,0,0,1,0,21.377)" style="font-family:&quot;Open Sans&quot;;font-weight:400;font-size:20px;font-style:normal;fill:#009688;stroke:none;">time</text></g><g transform="matrix(1,0,0,1,794.5,-411.236)"><text transform="matrix(1,0,0,1,0.01,21.377)" style="font-family:&quot;Open Sans&quot;;font-weight:400;font-size:20px;font-style:normal;fill:#000000;stroke:none;">/pdi/eth/kitties/chat</text></g><g transform="matrix(1,0,0,1,605,-480)"><text transform="matrix(1,0,0,1,0.496,21.377)" style="font-family:&quot;Open Sans&quot;;font-weight:400;font-size:20px;font-style:normal;fill:#000000;stroke:none;">Projection of PDI data to chat channel and key channel</text></g><g transform="matrix(1,0,0,1,573,-411.236)"><text transform="matrix(1,0,0,1,0.212,21.377)" style="font-family:&quot;Open Sans&quot;;font-weight:400;font-size:20px;font-style:normal;fill:#000000;stroke:none;">/pdi/eth/kitties/key/1</text></g><g id="Group"><rect x="1020" y="-372" width="72" height="36" transform="matrix(1,0,0,1,0,0)" fill="rgb(137,60,189)" fill-opacity="0.3"/><g transform="matrix(1,0,0,1,1030.5,-360.809)"><text transform="matrix(1,0,0,1,0.457,10.688)" style="font-family:&quot;Open Sans&quot;;font-weight:400;font-size:10px;font-style:normal;fill:#000000;stroke:none;">data block</text></g></g><g id="Group"><rect x="1020" y="-324" width="72" height="36" transform="matrix(1,0,0,1,0,0)" fill="rgb(137,60,189)" fill-opacity="0.3"/><g transform="matrix(1,0,0,1,1030.5,-312.809)"><text transform="matrix(1,0,0,1,0.457,10.688)" style="font-family:&quot;Open Sans&quot;;font-weight:400;font-size:10px;font-style:normal;fill:#000000;stroke:none;">data block</text></g></g><g id="Group"><rect x="1020" y="-276" width="72" height="36" transform="matrix(1,0,0,1,0,0)" fill="rgb(0,150,136)" fill-opacity="0.5"/><g transform="matrix(1,0,0,1,1030.5,-264.809)"><text transform="matrix(1,0,0,1,0.457,10.688)" style="font-family:&quot;Open Sans&quot;;font-weight:400;font-size:10px;font-style:normal;fill:#000000;stroke:none;">data block</text></g></g><g id="Group"><rect x="1020" y="-228" width="72" height="36" transform="matrix(1,0,0,1,0,0)" fill="rgb(0,150,136)" fill-opacity="0.5"/><g transform="matrix(1,0,0,1,1030.5,-216.809)"><text transform="matrix(1,0,0,1,0.457,10.688)" style="font-family:&quot;Open Sans&quot;;font-weight:400;font-size:10px;font-style:normal;fill:#000000;stroke:none;">data block</text></g></g><g id="Group"><rect x="1020" y="-180" width="72" height="36" transform="matrix(1,0,0,1,0,0)" fill="rgb(137,60,189)" fill-opacity="0.3"/><g transform="matrix(1,0,0,1,1030.5,-168.809)"><text transform="matrix(1,0,0,1,0.457,10.688)" style="font-family:&quot;Open Sans&quot;;font-weight:400;font-size:10px;font-style:normal;fill:#000000;stroke:none;">data block</text></g></g><g id="Group"><rect x="1020" y="-132" width="72" height="36" transform="matrix(1,0,0,1,0,0)" fill="rgb(137,60,189)" fill-opacity="0.3"/><g transform="matrix(1,0,0,1,1030.5,-120.809)"><text transform="matrix(1,0,0,1,0.457,10.688)" style="font-family:&quot;Open Sans&quot;;font-weight:400;font-size:10px;font-style:normal;fill:#000000;stroke:none;">data block</text></g></g><g id="Group"><rect x="1020" y="-84" width="72" height="36" transform="matrix(1,0,0,1,0,0)" fill="rgb(0,150,136)" fill-opacity="0.5"/><g transform="matrix(1,0,0,1,1030.5,-72.809)"><text transform="matrix(1,0,0,1,0.457,10.688)" style="font-family:&quot;Open Sans&quot;;font-weight:400;font-size:10px;font-style:normal;fill:#000000;stroke:none;">data block</text></g></g><g id="Group"><rect x="1020" y="-36" width="72" height="36" transform="matrix(1,0,0,1,0,0)" fill="rgb(0,150,136)" fill-opacity="0.5"/><g transform="matrix(1,0,0,1,1030.5,-24.809)"><text transform="matrix(1,0,0,1,0.457,10.688)" style="font-family:&quot;Open Sans&quot;;font-weight:400;font-size:10px;font-style:normal;fill:#000000;stroke:none;">data block</text></g></g><g id="Group"><rect x="1020" y="12" width="72" height="36" transform="matrix(1,0,0,1,0,0)" fill="rgb(0,150,136)" fill-opacity="0.5"/><g transform="matrix(1,0,0,1,1030.5,23.191)"><text transform="matrix(1,0,0,1,0.457,10.688)" style="font-family:&quot;Open Sans&quot;;font-weight:400;font-size:10px;font-style:normal;fill:#000000;stroke:none;">data block</text></g></g><g id="Group"><rect x="1020" y="60" width="72" height="36" transform="matrix(1,0,0,1,0,0)" fill="rgb(255,153,0)" fill-opacity="0.5"/><g transform="matrix(1,0,0,1,1030.5,71.191)"><text transform="matrix(1,0,0,1,0.457,10.688)" style="font-family:&quot;Open Sans&quot;;font-weight:400;font-size:10px;font-style:normal;fill:#000000;stroke:none;">data block</text></g></g><g id="Group"><rect x="1020" y="108" width="72" height="36" transform="matrix(1,0,0,1,0,0)" fill="rgb(0,150,136)" fill-opacity="0.5"/><g transform="matrix(1,0,0,1,1030.5,119.191)"><text transform="matrix(1,0,0,1,0.457,10.688)" style="font-family:&quot;Open Sans&quot;;font-weight:400;font-size:10px;font-style:normal;fill:#000000;stroke:none;">data block</text></g></g><g id="Group"><rect x="1020" y="156" width="72" height="36" transform="matrix(1,0,0,1,0,0)" fill="rgb(0,150,136)" fill-opacity="0.5"/><g transform="matrix(1,0,0,1,1030.5,167.191)"><text transform="matrix(1,0,0,1,0.457,10.688)" style="font-family:&quot;Open Sans&quot;;font-weight:400;font-size:10px;font-style:normal;fill:#000000;stroke:none;">data block</text></g></g><g id="Group"><rect x="1020" y="204" width="72" height="36" transform="matrix(1,0,0,1,0,0)" fill="rgb(255,153,0)" fill-opacity="0.5"/><g transform="matrix(1,0,0,1,1030.5,215.191)"><text transform="matrix(1,0,0,1,0.457,10.688)" style="font-family:&quot;Open Sans&quot;;font-weight:400;font-size:10px;font-style:normal;fill:#000000;stroke:none;">data block</text></g></g><g id="Group"><rect x="804" y="-276" width="168" height="36" transform="matrix(1,0,0,1,0,0)" fill="rgb(0,150,136)" fill-opacity="0.5"/><g transform="matrix(1,0,0,1,833,-264.809)"><text transform="matrix(1,0,0,1,0.021,10.688)" style="font-family:&quot;Open Sans&quot;;font-weight:400;font-size:10px;font-style:normal;fill:#000000;stroke:none;">encrypted chat content</text></g></g><g id="Group"><g id="Group"><rect x="588" y="-372" width="168" height="36" transform="matrix(1,0,0,1,0,0)" fill="rgb(137,60,189)" fill-opacity="0.3"/><g transform="matrix(1,0,0,1,593.5,-360.809)"><text transform="matrix(1,0,0,1,0.332,10.688)" style="font-family:&quot;Open Sans&quot;;font-weight:400;font-size:10px;font-style:normal;fill:#000000;stroke:none;">/pdi/eth/kitties/key/1/alice/public</text></g></g></g><g id="Group"><rect x="588" y="-324" width="168" height="36" transform="matrix(1,0,0,1,0,0)" fill="rgb(137,60,189)" fill-opacity="0.3"/><g transform="matrix(1,0,0,1,591.5,-312.809)"><text transform="matrix(1,0,0,1,0.01,10.688)" style="font-family:&quot;Open Sans&quot;;font-weight:400;font-size:10px;font-style:normal;fill:#000000;stroke:none;">/pdi/eth/kitties/key/1/alice/master</text></g></g><g id="Group"><rect x="588" y="-180" width="168" height="36" transform="matrix(1,0,0,1,0,0)" fill="rgb(137,60,189)" fill-opacity="0.3"/><g transform="matrix(1,0,0,1,604.5,-168.809)"><text transform="matrix(1,0,0,1,0.465,10.688)" style="font-family:&quot;Open Sans&quot;;font-weight:400;font-size:10px;font-style:normal;fill:#000000;stroke:none;">/pdi/eth/kitties/1/bob/public</text></g></g><g id="Group"><rect x="588" y="-132" width="168" height="36" transform="matrix(1,0,0,1,0,0)" fill="rgb(137,60,189)" fill-opacity="0.3"/><g transform="matrix(1,0,0,1,604.5,-120.809)"><text transform="matrix(1,0,0,1,0.143,10.688)" style="font-family:&quot;Open Sans&quot;;font-weight:400;font-size:10px;font-style:normal;fill:#000000;stroke:none;">/pdi/eth/kitties/1/bob/master</text></g></g><g id="Group"><rect x="804" y="-228" width="168" height="36" transform="matrix(1,0,0,1,0,0)" fill="rgb(0,150,136)" fill-opacity="0.5"/><g transform="matrix(1,0,0,1,833,-216.809)"><text transform="matrix(1,0,0,1,0.021,10.688)" style="font-family:&quot;Open Sans&quot;;font-weight:400;font-size:10px;font-style:normal;fill:#000000;stroke:none;">encrypted chat content</text></g></g><line x1="1020" y1="-353" x2="756" y2="-354" vector-effect="non-scaling-stroke" stroke-width="1" stroke-dasharray="4" stroke="rgb(0,0,0)" stroke-linejoin="miter" stroke-linecap="square" stroke-miterlimit="3"/><path d=" M 767.019 -358.958 L 757 -353.996 L 766.981 -348.958" fill="none" stroke="rgb(0,0,0)" stroke-width="1"/><line x1="1020" y1="-305" x2="756" y2="-306" vector-effect="non-scaling-stroke" stroke-width="1" stroke-dasharray="4" stroke="rgb(0,0,0)" stroke-linejoin="miter" stroke-linecap="square" stroke-miterlimit="3"/><path d=" M 767.019 -310.958 L 757 -305.996 L 766.981 -300.958" fill="none" stroke="rgb(0,0,0)" stroke-width="1"/><line x1="1020" y1="-161" x2="756" y2="-162" vector-effect="non-scaling-stroke" stroke-width="1" stroke-dasharray="4" stroke="rgb(0,0,0)" stroke-linejoin="miter" stroke-linecap="square" stroke-miterlimit="3"/><path d=" M 767.019 -166.958 L 757 -161.996 L 766.981 -156.958" fill="none" stroke="rgb(0,0,0)" stroke-width="1"/><line x1="1020" y1="-113" x2="756" y2="-114" vector-effect="non-scaling-stroke" stroke-width="1" stroke-dasharray="4" stroke="rgb(0,0,0)" stroke-linejoin="miter" stroke-linecap="square" stroke-miterlimit="3"/><path d=" M 767.019 -118.958 L 757 -113.996 L 766.981 -108.958" fill="none" stroke="rgb(0,0,0)" stroke-width="1"/><line x1="1020" y1="-257.513" x2="972" y2="-257.513" vector-effect="non-scaling-stroke" stroke-width="1" stroke-dasharray="4" stroke="rgb(0,0,0)" stroke-linejoin="miter" stroke-linecap="square" stroke-miterlimit="3"/><path d=" M 983 -262.513 L 973 -257.513 L 983 -252.513" fill="none" stroke="rgb(0,0,0)" stroke-width="1"/><line x1="1019" y1="-210" x2="971" y2="-210" vector-effect="non-scaling-stroke" stroke-width="1" stroke-dasharray="4" stroke="rgb(0,0,0)" stroke-linejoin="miter" stroke-linecap="square" stroke-miterlimit="3"/><path d=" M 982 -215 L 972 -210 L 982 -205" fill="none" stroke="rgb(0,0,0)" stroke-width="1"/><g id="Group"><rect x="804" y="-84" width="168" height="36" transform="matrix(1,0,0,1,0,0)" fill="rgb(0,150,136)" fill-opacity="0.5"/><g transform="matrix(1,0,0,1,833,-72.809)"><text transform="matrix(1,0,0,1,0.021,10.688)" style="font-family:&quot;Open Sans&quot;;font-weight:400;font-size:10px;font-style:normal;fill:#000000;stroke:none;">encrypted chat content</text></g></g><g id="Group"><rect x="804" y="-36" width="168" height="36" transform="matrix(1,0,0,1,0,0)" fill="rgb(235,235,235)"/><g transform="matrix(1,0,0,1,833,-24.809)"><text transform="matrix(1,0,0,1,0.021,10.688)" style="font-family:&quot;Open Sans&quot;;font-weight:400;font-size:10px;font-style:normal;fill:#000000;stroke:none;">encrypted chat content</text></g></g><line x1="1020" y1="-65.513" x2="972" y2="-65.513" vector-effect="non-scaling-stroke" stroke-width="1" stroke-dasharray="4" stroke="rgb(0,0,0)" stroke-linejoin="miter" stroke-linecap="square" stroke-miterlimit="3"/><path d=" M 983 -70.513 L 973 -65.513 L 983 -60.513" fill="none" stroke="rgb(0,0,0)" stroke-width="1"/><line x1="1019" y1="-18" x2="971" y2="-18" vector-effect="non-scaling-stroke" stroke-width="1" stroke-dasharray="4" stroke="rgb(0,0,0)" stroke-linejoin="miter" stroke-linecap="square" stroke-miterlimit="3"/><path d=" M 982 -23 L 972 -18 L 982 -13" fill="none" stroke="rgb(0,0,0)" stroke-width="1"/><g id="Group"><rect x="804" y="-36" width="168" height="36" transform="matrix(1,0,0,1,0,0)" fill="rgb(0,150,136)" fill-opacity="0.5"/><g transform="matrix(1,0,0,1,833,-24.809)"><text transform="matrix(1,0,0,1,0.021,10.688)" style="font-family:&quot;Open Sans&quot;;font-weight:400;font-size:10px;font-style:normal;fill:#000000;stroke:none;">encrypted chat content</text></g></g><g id="Group"><rect x="804" y="12" width="168" height="36" transform="matrix(1,0,0,1,0,0)" fill="rgb(0,150,136)" fill-opacity="0.5"/><g transform="matrix(1,0,0,1,833,23.191)"><text transform="matrix(1,0,0,1,0.021,10.688)" style="font-family:&quot;Open Sans&quot;;font-weight:400;font-size:10px;font-style:normal;fill:#000000;stroke:none;">encrypted chat content</text></g></g><line x1="1020" y1="30" x2="972" y2="30" vector-effect="non-scaling-stroke" stroke-width="1" stroke-dasharray="4" stroke="rgb(0,0,0)" stroke-linejoin="miter" stroke-linecap="square" stroke-miterlimit="3"/><path d=" M 983 25 L 973 30 L 983 35" fill="none" stroke="rgb(0,0,0)" stroke-width="1"/><g id="Group"><rect x="804" y="108" width="168" height="36" transform="matrix(1,0,0,1,0,0)" fill="rgb(235,235,235)"/><g transform="matrix(1,0,0,1,833,119.191)"><text transform="matrix(1,0,0,1,0.021,10.688)" style="font-family:&quot;Open Sans&quot;;font-weight:400;font-size:10px;font-style:normal;fill:#000000;stroke:none;">encrypted chat content</text></g></g><line x1="1019" y1="126" x2="971" y2="126" vector-effect="non-scaling-stroke" stroke-width="1" stroke-dasharray="4" stroke="rgb(0,0,0)" stroke-linejoin="miter" stroke-linecap="square" stroke-miterlimit="3"/><path d=" M 982 121 L 972 126 L 982 131" fill="none" stroke="rgb(0,0,0)" stroke-width="1"/><g id="Group"><rect x="804" y="108" width="168" height="36" transform="matrix(1,0,0,1,0,0)" fill="rgb(0,150,136)" fill-opacity="0.5"/><g transform="matrix(1,0,0,1,833,119.191)"><text transform="matrix(1,0,0,1,0.021,10.688)" style="font-family:&quot;Open Sans&quot;;font-weight:400;font-size:10px;font-style:normal;fill:#000000;stroke:none;">encrypted chat content</text></g></g><g id="Group"><rect x="804" y="156" width="168" height="36" transform="matrix(1,0,0,1,0,0)" fill="rgb(0,150,136)" fill-opacity="0.5"/><g transform="matrix(1,0,0,1,833,167.191)"><text transform="matrix(1,0,0,1,0.021,10.688)" style="font-family:&quot;Open Sans&quot;;font-weight:400;font-size:10px;font-style:normal;fill:#000000;stroke:none;">encrypted chat content</text></g></g><line x1="1020" y1="174" x2="972" y2="174" vector-effect="non-scaling-stroke" stroke-width="1" stroke-dasharray="4" stroke="rgb(0,0,0)" stroke-linejoin="miter" stroke-linecap="square" stroke-miterlimit="3"/><path d=" M 983 169 L 973 174 L 983 179" fill="none" stroke="rgb(0,0,0)" stroke-width="1"/><line x1="1128" y1="-372" x2="1128" y2="180" vector-effect="non-scaling-stroke" stroke-width="5" stroke-dasharray="0,0" stroke="rgb(0,150,136)" stroke-linejoin="miter" stroke-linecap="butt" stroke-miterlimit="3"/><path d=" M 1116.82 179.329 L 1128 201.69 L 1139.18 179.329 Z " fill="rgb(0,150,136)" stroke="none"/></svg>