<?xml version="1.0" standalone="no"?><!-- Generator: Gravit.io --><svg xmlns="http://www.w3.org/2000/svg" xmlns:xlink="http://www.w3.org/1999/xlink" style="isolation:isolate" viewBox="195.5 -483.236 861.118 829.078" width="861.118" height="829.078"><rect x="372" y="-420" width="192" height="156" transform="matrix(1,0,0,1,0,0)" fill="rgb(232,232,232)"/><rect x="576" y="-420" width="192" height="672" transform="matrix(1,0,0,1,0,0)" fill="rgb(232,232,232)"/><g transform="matrix(0,-1,1,0,1029.382,-66)"><text transform="matrix(1,0,0,1,0,21.377)" style="font-family:&quot;Open Sans&quot;;font-weight:400;font-size:20px;font-style:normal;fill:#009688;stroke:none;">time</text></g><g transform="matrix(1,0,0,1,626.5,-483.236)"><text transform="matrix(1,0,0,1,0.135,21.377)" style="font-family:&quot;Open Sans&quot;;font-weight:400;font-size:20px;font-style:normal;fill:#000000;stroke:none;">Workflow</text></g><g transform="matrix(1,0,0,1,573,-411.236)"><text transform="matrix(1,0,0,1,0.212,21.377)" style="font-family:&quot;Open Sans&quot;;font-weight:400;font-size:20px;font-style:normal;fill:#000000;stroke:none;">/pdi/eth/kitties/key/1</text></g><g transform="matrix(1,0,0,1,421,-411.236)"><text transform="matrix(1,0,0,1,0.248,21.377)" style="font-family:&quot;Open Sans&quot;;font-weight:400;font-size:20px;font-style:normal;fill:#000000;stroke:none;">Alice's SKI</text></g><g transform="matrix(1,0,0,1,264,-447.236)"><text transform="matrix(1,0,0,1,0.242,21.377)" style="font-family:&quot;Open Sans&quot;;font-weight:400;font-size:20px;font-style:normal;fill:#000000;stroke:none;">Alice</text></g><g id="Group"><g id="Group"><rect x="588" y="-276" width="168" height="36" transform="matrix(1,0,0,1,0,0)" fill="rgb(137,60,189)" fill-opacity="0.3"/><g transform="matrix(1,0,0,1,593.5,-264.809)"><text transform="matrix(1,0,0,1,0.332,10.688)" style="font-family:&quot;Open Sans&quot;;font-weight:400;font-size:10px;font-style:normal;fill:#000000;stroke:none;">/pdi/eth/kitties/key/1/alice/public</text></g></g></g><g id="Group"><rect x="588" y="-228" width="168" height="36" transform="matrix(1,0,0,1,0,0)" fill="rgb(137,60,189)" fill-opacity="0.3"/><g transform="matrix(1,0,0,1,591.5,-216.809)"><text transform="matrix(1,0,0,1,0.01,10.688)" style="font-family:&quot;Open Sans&quot;;font-weight:400;font-size:10px;font-style:normal;fill:#000000;stroke:none;">/pdi/eth/kitties/key/1/alice/master</text></g></g><g id="Group"><rect x="588" y="-132" width="168" height="36" transform="matrix(1,0,0,1,0,0)" fill="rgb(137,60,189)" fill-opacity="0.3"/><g transform="matrix(1,0,0,1,604.5,-120.809)"><text transform="matrix(1,0,0,1,0.465,10.688)" style="font-family:&quot;Open Sans&quot;;font-weight:400;font-size:10px;font-style:normal;fill:#000000;stroke:none;">/pdi/eth/kitties/1/bob/public</text></g></g><g id="Group"><rect x="588" y="108" width="168" height="36" transform="matrix(1,0,0,1,0,0)" fill="rgb(137,60,189)" fill-opacity="0.3"/><g transform="matrix(1,0,0,1,605,119.191)"><text transform="matrix(1,0,0,1,0.143,10.688)" style="font-family:&quot;Open Sans&quot;;font-weight:400;font-size:10px;font-style:normal;fill:#000000;stroke:none;">/pdi/eth/kitties/1/bob/master</text></g></g><line x1="1019" y1="-372" x2="1019" y2="180" vector-effect="non-scaling-stroke" stroke-width="5" stroke-dasharray="0,0" stroke="rgb(0,150,136)" stroke-linejoin="miter" stroke-linecap="butt" stroke-miterlimit="3"/><path d=" M 1007.82 179.329 L 1019 201.69 L 1030.18 179.329 Z " fill="rgb(0,150,136)" stroke="none"/><g id="Group"><defs><filter id="ovT4H9SvgGR0stALIRBeaTr3UqBNm0R7" x="-200%" y="-200%" width="400%" height="400%"><feOffset xmlns="http://www.w3.org/2000/svg" in="SourceAlpha" result="offOut" dx="3" dy="3"/><feGaussianBlur xmlns="http://www.w3.org/2000/svg" in="offOut" result="blurOut" stdDeviation="2.5"/><feComponentTransfer xmlns="http://www.w3.org/2000/svg" in="blurOut" result="opacOut"><feFuncA xmlns="http://www.w3.org/2000/svg" type="table" tableValues="0 0.5"/></feComponentTransfer><feBlend xmlns="http://www.w3.org/2000/svg" in="SourceGraphic" in2="opacOut" mode="normal"/></filter></defs><g filter="url(#ovT4H9SvgGR0stALIRBeaTr3UqBNm0R7)"><path d=" M 198 -389.447 C 198 -399.382 206.066 -407.447 216 -407.447 C 225.934 -407.447 234 -399.382 234 -389.447 C 234 -379.513 225.934 -371.447 216 -371.447 C 206.066 -371.447 198 -379.513 198 -389.447 Z " fill="rgb(255,153,0)" fill-opacity="0.5" vector-effect="non-scaling-stroke" stroke-width="1" stroke="rgb(0,0,0)" stroke-linejoin="miter" stroke-linecap="square" stroke-miterlimit="3"/></g><g transform="matrix(1,0,0,1,209,-403.065)"><text transform="matrix(1,0,0,1,0.282,21.377)" style="font-family:&quot;Open Sans&quot;;font-weight:400;font-size:20px;font-style:normal;fill:#000000;stroke:none;">1</text></g></g><rect x="384" y="-372" width="168" height="36" transform="matrix(1,0,0,1,0,0)" fill="rgb(255,0,0)" fill-opacity="0.5"/><g transform="matrix(1,0,0,1,436,-362.171)"><text transform="matrix(1,0,0,1,0,12.826)" style="font-family:&quot;Open Sans&quot;;font-weight:400;font-size:12px;font-style:normal;fill:#000000;stroke:none;">private key</text></g><g transform="matrix(1,0,0,1,436,-362.171)"><text transform="matrix(1,0,0,1,0,12.826)" style="font-family:&quot;Open Sans&quot;;font-weight:400;font-size:12px;font-style:normal;fill:#000000;stroke:none;">private key</text></g><g transform="matrix(1,0,0,1,240,-397.618)"><text transform="matrix(1,0,0,1,0,12.826)" style="font-family:&quot;Open Sans&quot;;font-weight:400;font-size:12px;font-style:normal;fill:#000000;stroke:none;">generate private key</text></g><g transform="matrix(1,0,0,1,267,-195.789)"><text transform="matrix(1,0,0,1,0.353,21.377)" style="font-family:&quot;Open Sans&quot;;font-weight:400;font-size:20px;font-style:normal;fill:#000000;stroke:none;">Bob</text></g><g id="Group"><defs><filter id="lcmVdWZDljwjy9l7yoBTVwYGo9yUH2Fv" x="-200%" y="-200%" width="400%" height="400%"><feOffset xmlns="http://www.w3.org/2000/svg" in="SourceAlpha" result="offOut" dx="3" dy="3"/><feGaussianBlur xmlns="http://www.w3.org/2000/svg" in="offOut" result="blurOut" stdDeviation="2.5"/><feComponentTransfer xmlns="http://www.w3.org/2000/svg" in="blurOut" result="opacOut"><feFuncA xmlns="http://www.w3.org/2000/svg" type="table" tableValues="0 0.5"/></feComponentTransfer><feBlend xmlns="http://www.w3.org/2000/svg" in="SourceGraphic" in2="opacOut" mode="normal"/></filter></defs><g filter="url(#lcmVdWZDljwjy9l7yoBTVwYGo9yUH2Fv)"><path d=" M 201 -151 C 201 -160.934 209.066 -169 219 -169 C 228.934 -169 237 -160.934 237 -151 C 237 -141.066 228.934 -133 219 -133 C 209.066 -133 201 -141.066 201 -151 Z " fill="rgb(255,153,0)" fill-opacity="0.5" vector-effect="non-scaling-stroke" stroke-width="1" stroke="rgb(0,0,0)" stroke-linejoin="miter" stroke-linecap="square" stroke-miterlimit="3"/></g><g transform="matrix(1,0,0,1,212,-164.618)"><text transform="matrix(1,0,0,1,0.282,21.377)" style="font-family:&quot;Open Sans&quot;;font-weight:400;font-size:20px;font-style:normal;fill:#000000;stroke:none;">5</text></g></g><g transform="matrix(1,0,0,1,243,-159.171)"><text transform="matrix(1,0,0,1,0,12.826)" style="font-family:&quot;Open Sans&quot;;font-weight:400;font-size:12px;font-style:normal;fill:#000000;stroke:none;">generate private key</text></g><g id="Group"><defs><filter id="KR8BN3V9lhEfbV7jJcUGoWL6NHb3IwDS" x="-200%" y="-200%" width="400%" height="400%"><feOffset xmlns="http://www.w3.org/2000/svg" in="SourceAlpha" result="offOut" dx="3" dy="3"/><feGaussianBlur xmlns="http://www.w3.org/2000/svg" in="offOut" result="blurOut" stdDeviation="2.5"/><feComponentTransfer xmlns="http://www.w3.org/2000/svg" in="blurOut" result="opacOut"><feFuncA xmlns="http://www.w3.org/2000/svg" type="table" tableValues="0 0.5"/></feComponentTransfer><feBlend xmlns="http://www.w3.org/2000/svg" in="SourceGraphic" in2="opacOut" mode="normal"/></filter></defs><g filter="url(#KR8BN3V9lhEfbV7jJcUGoWL6NHb3IwDS)"><path d=" M 198 -342 C 198 -351.934 206.066 -360 216 -360 C 225.934 -360 234 -351.934 234 -342 C 234 -332.066 225.934 -324 216 -324 C 206.066 -324 198 -332.066 198 -342 Z " fill="rgb(255,153,0)" fill-opacity="0.5" vector-effect="non-scaling-stroke" stroke-width="1" stroke="rgb(0,0,0)" stroke-linejoin="miter" stroke-linecap="square" stroke-miterlimit="3"/></g><g transform="matrix(1,0,0,1,209,-355.618)"><text transform="matrix(1,0,0,1,0.282,21.377)" style="font-family:&quot;Open Sans&quot;;font-weight:400;font-size:20px;font-style:normal;fill:#000000;stroke:none;">2</text></g></g><g transform="matrix(1,0,0,1,240,-350.171)"><text transform="matrix(1,0,0,1,0,12.826)" style="font-family:&quot;Open Sans&quot;;font-weight:400;font-size:12px;font-style:normal;fill:#000000;stroke:none;">generate master key</text></g><g transform="matrix(1,0,0,1,268,-13.618)"><text transform="matrix(1,0,0,1,0.242,21.377)" style="font-family:&quot;Open Sans&quot;;font-weight:400;font-size:20px;font-style:normal;fill:#000000;stroke:none;">Alice</text></g><g id="Group"><defs><filter id="LAFU0czFTJ5wlYvmQLFKUJCtfkgzXLEl" x="-200%" y="-200%" width="400%" height="400%"><feOffset xmlns="http://www.w3.org/2000/svg" in="SourceAlpha" result="offOut" dx="3" dy="3"/><feGaussianBlur xmlns="http://www.w3.org/2000/svg" in="offOut" result="blurOut" stdDeviation="2.5"/><feComponentTransfer xmlns="http://www.w3.org/2000/svg" in="blurOut" result="opacOut"><feFuncA xmlns="http://www.w3.org/2000/svg" type="table" tableValues="0 0.5"/></feComponentTransfer><feBlend xmlns="http://www.w3.org/2000/svg" in="SourceGraphic" in2="opacOut" mode="normal"/></filter></defs><g filter="url(#LAFU0czFTJ5wlYvmQLFKUJCtfkgzXLEl)"><path d=" M 202 38.171 C 202 28.236 210.066 20.171 220 20.171 C 229.934 20.171 238 28.236 238 38.171 C 238 48.105 229.934 56.171 220 56.171 C 210.066 56.171 202 48.105 202 38.171 Z " fill="rgb(255,153,0)" fill-opacity="0.5" vector-effect="non-scaling-stroke" stroke-width="1" stroke="rgb(0,0,0)" stroke-linejoin="miter" stroke-linecap="square" stroke-miterlimit="3"/></g><g transform="matrix(1,0,0,1,213,24.553)"><text transform="matrix(1,0,0,1,0.282,21.377)" style="font-family:&quot;Open Sans&quot;;font-weight:400;font-size:20px;font-style:normal;fill:#000000;stroke:none;">8</text></g></g><g transform="matrix(1,0,0,1,244,21.829)"><text transform="matrix(1,0,0,1,0,12.826)" style="font-family:&quot;Open Sans&quot;;font-weight:400;font-size:12px;font-style:normal;fill:#000000;stroke:none;">get master key and</text><text transform="matrix(1,0,0,1,0,29.168)" style="font-family:&quot;Open Sans&quot;;font-weight:400;font-size:12px;font-style:normal;fill:#000000;stroke:none;">Bob's public key</text></g><g id="Group"><defs><filter id="8WoxLhYWyNKtN88CRUO2UbQ5VZ0cuGue" x="-200%" y="-200%" width="400%" height="400%"><feOffset xmlns="http://www.w3.org/2000/svg" in="SourceAlpha" result="offOut" dx="3" dy="3"/><feGaussianBlur xmlns="http://www.w3.org/2000/svg" in="offOut" result="blurOut" stdDeviation="2.5"/><feComponentTransfer xmlns="http://www.w3.org/2000/svg" in="blurOut" result="opacOut"><feFuncA xmlns="http://www.w3.org/2000/svg" type="table" tableValues="0 0.5"/></feComponentTransfer><feBlend xmlns="http://www.w3.org/2000/svg" in="SourceGraphic" in2="opacOut" mode="normal"/></filter></defs><g filter="url(#8WoxLhYWyNKtN88CRUO2UbQ5VZ0cuGue)"><path d=" M 202 85.618 C 202 75.684 210.066 67.618 220 67.618 C 229.934 67.618 238 75.684 238 85.618 C 238 95.553 229.934 103.618 220 103.618 C 210.066 103.618 202 95.553 202 85.618 Z " fill="rgb(255,153,0)" fill-opacity="0.5" vector-effect="non-scaling-stroke" stroke-width="1" stroke="rgb(0,0,0)" stroke-linejoin="miter" stroke-linecap="square" stroke-miterlimit="3"/></g><g transform="matrix(1,0,0,1,213,72)"><text transform="matrix(1,0,0,1,0.282,21.377)" style="font-family:&quot;Open Sans&quot;;font-weight:400;font-size:20px;font-style:normal;fill:#000000;stroke:none;">9</text></g></g><g transform="matrix(1,0,0,1,243,69.829)"><text transform="matrix(1,0,0,1,0,12.826)" style="font-family:&quot;Open Sans&quot;;font-weight:400;font-size:12px;font-style:normal;fill:#000000;stroke:none;">encrypt master key</text><text transform="matrix(1,0,0,1,0,29.168)" style="font-family:&quot;Open Sans&quot;;font-weight:400;font-size:12px;font-style:normal;fill:#000000;stroke:none;">for Bob's public key</text></g><defs><filter id="WtRQmj50oX13TuPX8jQFbDTKBhxa1wrU" x="-200%" y="-200%" width="400%" height="400%"><feOffset xmlns="http://www.w3.org/2000/svg" in="SourceAlpha" result="offOut" dx="3" dy="3"/><feGaussianBlur xmlns="http://www.w3.org/2000/svg" in="offOut" result="blurOut" stdDeviation="2.5"/><feComponentTransfer xmlns="http://www.w3.org/2000/svg" in="blurOut" result="opacOut"><feFuncA xmlns="http://www.w3.org/2000/svg" type="table" tableValues="0 0.5"/></feComponentTransfer><feBlend xmlns="http://www.w3.org/2000/svg" in="SourceGraphic" in2="opacOut" mode="normal"/></filter></defs><g filter="url(#WtRQmj50oX13TuPX8jQFbDTKBhxa1wrU)"><path d=" M 202 139.065 C 202 129.131 210.066 121.065 220 121.065 C 229.934 121.065 238 129.131 238 139.065 C 238 149 229.934 157.065 220 157.065 C 210.066 157.065 202 149 202 139.065 Z " fill="rgb(255,153,0)" fill-opacity="0.5" vector-effect="non-scaling-stroke" stroke-width="1" stroke="rgb(0,0,0)" stroke-linejoin="miter" stroke-linecap="square" stroke-miterlimit="3"/></g><g transform="matrix(1,0,0,1,207.5,125.608)"><text transform="matrix(1,0,0,1,0.064,21.377)" style="font-family:&quot;Open Sans&quot;;font-weight:400;font-size:20px;font-style:normal;fill:#000000;stroke:none;">10</text></g><g transform="matrix(1,0,0,1,243,117.276)"><text transform="matrix(1,0,0,1,0,12.826)" style="font-family:&quot;Open Sans&quot;;font-weight:400;font-size:12px;font-style:normal;fill:#000000;stroke:none;">write encrypted master</text><text transform="matrix(1,0,0,1,0,29.168)" style="font-family:&quot;Open Sans&quot;;font-weight:400;font-size:12px;font-style:normal;fill:#000000;stroke:none;">to channel for Bob</text></g><g transform="matrix(1,0,0,1,267,167.191)"><text transform="matrix(1,0,0,1,0.353,21.377)" style="font-family:&quot;Open Sans&quot;;font-weight:400;font-size:20px;font-style:normal;fill:#000000;stroke:none;">Bob</text></g><defs><filter id="7IrogwjpKCixXyxYHgtE8vx7ktJ7Dq5Q" x="-200%" y="-200%" width="400%" height="400%"><feOffset xmlns="http://www.w3.org/2000/svg" in="SourceAlpha" result="offOut" dx="3" dy="3"/><feGaussianBlur xmlns="http://www.w3.org/2000/svg" in="offOut" result="blurOut" stdDeviation="2.5"/><feComponentTransfer xmlns="http://www.w3.org/2000/svg" in="blurOut" result="opacOut"><feFuncA xmlns="http://www.w3.org/2000/svg" type="table" tableValues="0 0.5"/></feComponentTransfer><feBlend xmlns="http://www.w3.org/2000/svg" in="SourceGraphic" in2="opacOut" mode="normal"/></filter></defs><g filter="url(#7IrogwjpKCixXyxYHgtE8vx7ktJ7Dq5Q)"><path d=" M 201 224.447 C 201 214.513 209.066 206.447 219 206.447 C 228.934 206.447 237 214.513 237 224.447 C 237 234.382 228.934 242.447 219 242.447 C 209.066 242.447 201 234.382 201 224.447 Z " fill="rgb(255,153,0)" fill-opacity="0.5" vector-effect="non-scaling-stroke" stroke-width="1" stroke="rgb(0,0,0)" stroke-linejoin="miter" stroke-linecap="square" stroke-miterlimit="3"/></g><g transform="matrix(1,0,0,1,206.5,210.553)"><text transform="matrix(1,0,0,1,0.064,21.377)" style="font-family:&quot;Open Sans&quot;;font-weight:400;font-size:20px;font-style:normal;fill:#000000;stroke:none;">11</text></g><g transform="matrix(1,0,0,1,243,208.105)"><text transform="matrix(1,0,0,1,0,12.826)" style="font-family:&quot;Open Sans&quot;;font-weight:400;font-size:12px;font-style:normal;fill:#000000;stroke:none;">get master key and</text><text transform="matrix(1,0,0,1,0,29.168)" style="font-family:&quot;Open Sans&quot;;font-weight:400;font-size:12px;font-style:normal;fill:#000000;stroke:none;">encrypted data</text></g><defs><filter id="yQgxGjE01OPnpyVjKNdG2GUeoEgTWcbQ" x="-200%" y="-200%" width="400%" height="400%"><feOffset xmlns="http://www.w3.org/2000/svg" in="SourceAlpha" result="offOut" dx="3" dy="3"/><feGaussianBlur xmlns="http://www.w3.org/2000/svg" in="offOut" result="blurOut" stdDeviation="2.5"/><feComponentTransfer xmlns="http://www.w3.org/2000/svg" in="blurOut" result="opacOut"><feFuncA xmlns="http://www.w3.org/2000/svg" type="table" tableValues="0 0.5"/></feComponentTransfer><feBlend xmlns="http://www.w3.org/2000/svg" in="SourceGraphic" in2="opacOut" mode="normal"/></filter></defs><g filter="url(#yQgxGjE01OPnpyVjKNdG2GUeoEgTWcbQ)"><path d=" M 201 271.895 C 201 261.96 209.066 253.895 219 253.895 C 228.934 253.895 237 261.96 237 271.895 C 237 281.829 228.934 289.895 219 289.895 C 209.066 289.895 201 281.829 201 271.895 Z " fill="rgb(255,153,0)" fill-opacity="0.5" vector-effect="non-scaling-stroke" stroke-width="1" stroke="rgb(0,0,0)" stroke-linejoin="miter" stroke-linecap="square" stroke-miterlimit="3"/></g><g transform="matrix(1,0,0,1,207.5,258.276)"><text transform="matrix(1,0,0,1,0.064,21.377)" style="font-family:&quot;Open Sans&quot;;font-weight:400;font-size:20px;font-style:normal;fill:#000000;stroke:none;">12</text></g><g transform="matrix(1,0,0,1,242,256.105)"><text transform="matrix(1,0,0,1,0,12.826)" style="font-family:&quot;Open Sans&quot;;font-weight:400;font-size:12px;font-style:normal;fill:#000000;stroke:none;">decrypt master key</text><text transform="matrix(1,0,0,1,0,29.168)" style="font-family:&quot;Open Sans&quot;;font-weight:400;font-size:12px;font-style:normal;fill:#000000;stroke:none;">w. Bob's private key</text></g><defs><filter id="ihkOWucxcZkfgjb8LjG5q7mEZcsZh9Hl" x="-200%" y="-200%" width="400%" height="400%"><feOffset xmlns="http://www.w3.org/2000/svg" in="SourceAlpha" result="offOut" dx="3" dy="3"/><feGaussianBlur xmlns="http://www.w3.org/2000/svg" in="offOut" result="blurOut" stdDeviation="2.5"/><feComponentTransfer xmlns="http://www.w3.org/2000/svg" in="blurOut" result="opacOut"><feFuncA xmlns="http://www.w3.org/2000/svg" type="table" tableValues="0 0.5"/></feComponentTransfer><feBlend xmlns="http://www.w3.org/2000/svg" in="SourceGraphic" in2="opacOut" mode="normal"/></filter></defs><g filter="url(#ihkOWucxcZkfgjb8LjG5q7mEZcsZh9Hl)"><path d=" M 201 319.342 C 201 309.407 209.066 301.342 219 301.342 C 228.934 301.342 237 309.407 237 319.342 C 237 329.276 228.934 337.342 219 337.342 C 209.066 337.342 201 329.276 201 319.342 Z " fill="rgb(255,153,0)" fill-opacity="0.5" vector-effect="non-scaling-stroke" stroke-width="1" stroke="rgb(0,0,0)" stroke-linejoin="miter" stroke-linecap="square" stroke-miterlimit="3"/></g><g transform="matrix(1,0,0,1,206.5,305.724)"><text transform="matrix(1,0,0,1,0.064,21.377)" style="font-family:&quot;Open Sans&quot;;font-weight:400;font-size:20px;font-style:normal;fill:#000000;stroke:none;">13</text></g><g transform="matrix(1,0,0,1,242,303.553)"><text transform="matrix(1,0,0,1,0,12.826)" style="font-family:&quot;Open Sans&quot;;font-weight:400;font-size:12px;font-style:normal;fill:#000000;stroke:none;">decrypt content w/</text><text transform="matrix(1,0,0,1,0,29.168)" style="font-family:&quot;Open Sans&quot;;font-weight:400;font-size:12px;font-style:normal;fill:#000000;stroke:none;">master key</text></g><g id="Group"><defs><filter id="nRWGcjbQw7dlYiZu61ApJC7ESLys5T4x" x="-200%" y="-200%" width="400%" height="400%"><feOffset xmlns="http://www.w3.org/2000/svg" in="SourceAlpha" result="offOut" dx="3" dy="3"/><feGaussianBlur xmlns="http://www.w3.org/2000/svg" in="offOut" result="blurOut" stdDeviation="2.5"/><feComponentTransfer xmlns="http://www.w3.org/2000/svg" in="blurOut" result="opacOut"><feFuncA xmlns="http://www.w3.org/2000/svg" type="table" tableValues="0 0.5"/></feComponentTransfer><feBlend xmlns="http://www.w3.org/2000/svg" in="SourceGraphic" in2="opacOut" mode="normal"/></filter></defs><g filter="url(#nRWGcjbQw7dlYiZu61ApJC7ESLys5T4x)"><path d=" M 198 -294 C 198 -303.934 206.066 -312 216 -312 C 225.934 -312 234 -303.934 234 -294 C 234 -284.066 225.934 -276 216 -276 C 206.066 -276 198 -284.066 198 -294 Z " fill="rgb(255,153,0)" fill-opacity="0.5" vector-effect="non-scaling-stroke" stroke-width="1" stroke="rgb(0,0,0)" stroke-linejoin="miter" stroke-linecap="square" stroke-miterlimit="3"/></g><g transform="matrix(1,0,0,1,209,-307.618)"><text transform="matrix(1,0,0,1,0.282,21.377)" style="font-family:&quot;Open Sans&quot;;font-weight:400;font-size:20px;font-style:normal;fill:#000000;stroke:none;">3</text></g></g><g transform="matrix(1,0,0,1,240,-302.171)"><text transform="matrix(1,0,0,1,0,12.826)" style="font-family:&quot;Open Sans&quot;;font-weight:400;font-size:12px;font-style:normal;fill:#000000;stroke:none;">encrypt master key</text></g><defs><filter id="WHT0IdjNumQF5KFZiO1h1DxWQqPYPrLM" x="-200%" y="-200%" width="400%" height="400%"><feOffset xmlns="http://www.w3.org/2000/svg" in="SourceAlpha" result="offOut" dx="3" dy="3"/><feGaussianBlur xmlns="http://www.w3.org/2000/svg" in="offOut" result="blurOut" stdDeviation="2.5"/><feComponentTransfer xmlns="http://www.w3.org/2000/svg" in="blurOut" result="opacOut"><feFuncA xmlns="http://www.w3.org/2000/svg" type="table" tableValues="0 0.5"/></feComponentTransfer><feBlend xmlns="http://www.w3.org/2000/svg" in="SourceGraphic" in2="opacOut" mode="normal"/></filter></defs><g filter="url(#WHT0IdjNumQF5KFZiO1h1DxWQqPYPrLM)"><path d=" M 198 -246 C 198 -255.934 206.066 -264 216 -264 C 225.934 -264 234 -255.934 234 -246 C 234 -236.066 225.934 -228 216 -228 C 206.066 -228 198 -236.066 198 -246 Z " fill="rgb(255,153,0)" fill-opacity="0.5" vector-effect="non-scaling-stroke" stroke-width="1" stroke="rgb(0,0,0)" stroke-linejoin="miter" stroke-linecap="square" stroke-miterlimit="3"/></g><g transform="matrix(1,0,0,1,209,-259.618)"><text transform="matrix(1,0,0,1,0.282,21.377)" style="font-family:&quot;Open Sans&quot;;font-weight:400;font-size:20px;font-style:normal;fill:#000000;stroke:none;">4</text></g><g transform="matrix(1,0,0,1,240,-262.342)"><text transform="matrix(1,0,0,1,0,12.826)" style="font-family:&quot;Open Sans&quot;;font-weight:400;font-size:12px;font-style:normal;fill:#000000;stroke:none;">write public key and encrypted</text><text transform="matrix(1,0,0,1,0,29.168)" style="font-family:&quot;Open Sans&quot;;font-weight:400;font-size:12px;font-style:normal;fill:#000000;stroke:none;">master to channel</text></g><defs><filter id="bK31vkO0PvSpYX6hqdWaDDVBBYJcmdvo" x="-200%" y="-200%" width="400%" height="400%"><feOffset xmlns="http://www.w3.org/2000/svg" in="SourceAlpha" result="offOut" dx="3" dy="3"/><feGaussianBlur xmlns="http://www.w3.org/2000/svg" in="offOut" result="blurOut" stdDeviation="2.5"/><feComponentTransfer xmlns="http://www.w3.org/2000/svg" in="blurOut" result="opacOut"><feFuncA xmlns="http://www.w3.org/2000/svg" type="table" tableValues="0 0.5"/></feComponentTransfer><feBlend xmlns="http://www.w3.org/2000/svg" in="SourceGraphic" in2="opacOut" mode="normal"/></filter></defs><g filter="url(#bK31vkO0PvSpYX6hqdWaDDVBBYJcmdvo)"><path d=" M 202 -105 C 202 -114.934 210.066 -123 220 -123 C 229.934 -123 238 -114.934 238 -105 C 238 -95.066 229.934 -87 220 -87 C 210.066 -87 202 -95.066 202 -105 Z " fill="rgb(255,153,0)" fill-opacity="0.5" vector-effect="non-scaling-stroke" stroke-width="1" stroke="rgb(0,0,0)" stroke-linejoin="miter" stroke-linecap="square" stroke-miterlimit="3"/></g><g transform="matrix(1,0,0,1,213,-118.618)"><text transform="matrix(1,0,0,1,0.282,21.377)" style="font-family:&quot;Open Sans&quot;;font-weight:400;font-size:20px;font-style:normal;fill:#000000;stroke:none;">6</text></g><g transform="matrix(1,0,0,1,243,-113.171)"><text transform="matrix(1,0,0,1,0,12.826)" style="font-family:&quot;Open Sans&quot;;font-weight:400;font-size:12px;font-style:normal;fill:#000000;stroke:none;">write public key to channel</text></g><defs><filter id="2TtQYq1QvffWByZv3n8OUtLCX0D6gajG" x="-200%" y="-200%" width="400%" height="400%"><feOffset xmlns="http://www.w3.org/2000/svg" in="SourceAlpha" result="offOut" dx="3" dy="3"/><feGaussianBlur xmlns="http://www.w3.org/2000/svg" in="offOut" result="blurOut" stdDeviation="2.5"/><feComponentTransfer xmlns="http://www.w3.org/2000/svg" in="blurOut" result="opacOut"><feFuncA xmlns="http://www.w3.org/2000/svg" type="table" tableValues="0 0.5"/></feComponentTransfer><feBlend xmlns="http://www.w3.org/2000/svg" in="SourceGraphic" in2="opacOut" mode="normal"/></filter></defs><g filter="url(#2TtQYq1QvffWByZv3n8OUtLCX0D6gajG)"><path d=" M 202 -61 C 202 -70.934 210.066 -79 220 -79 C 229.934 -79 238 -70.934 238 -61 C 238 -51.066 229.934 -43 220 -43 C 210.066 -43 202 -51.066 202 -61 Z " fill="rgb(255,153,0)" fill-opacity="0.5" vector-effect="non-scaling-stroke" stroke-width="1" stroke="rgb(0,0,0)" stroke-linejoin="miter" stroke-linecap="square" stroke-miterlimit="3"/></g><g transform="matrix(1,0,0,1,213,-74.618)"><text transform="matrix(1,0,0,1,0.282,21.377)" style="font-family:&quot;Open Sans&quot;;font-weight:400;font-size:20px;font-style:normal;fill:#000000;stroke:none;">7</text></g><g transform="matrix(1,0,0,1,243,-69.171)"><text transform="matrix(1,0,0,1,0,12.826)" style="font-family:&quot;Open Sans&quot;;font-weight:400;font-size:12px;font-style:normal;fill:#000000;stroke:none;">"Alice, can you vouch?"</text></g><rect x="384" y="-324" width="168" height="36" transform="matrix(1,0,0,1,0,0)" fill="rgb(235,235,235)" vector-effect="non-scaling-stroke" stroke-width="3" stroke-dasharray="4" stroke="rgb(255,0,0)" stroke-linejoin="miter" stroke-linecap="square" stroke-miterlimit="3"/><g transform="matrix(1,0,0,1,436,-314.171)"><text transform="matrix(1,0,0,1,0,12.826)" style="font-family:&quot;Open Sans&quot;;font-weight:400;font-size:12px;font-style:normal;fill:#000000;stroke:none;">master key</text></g><rect x="372" y="-24" width="192" height="145.065" transform="matrix(1,0,0,1,0,0)" fill="rgb(232,232,232)"/><g transform="matrix(1,0,0,1,421,-21.236)"><text transform="matrix(1,0,0,1,0.248,21.377)" style="font-family:&quot;Open Sans&quot;;font-weight:400;font-size:20px;font-style:normal;fill:#000000;stroke:none;">Alice's SKI</text></g><rect x="384" y="18" width="168" height="36" transform="matrix(1,0,0,1,0,0)" fill="rgb(255,0,0)" fill-opacity="0.5"/><g transform="matrix(1,0,0,1,436,27.829)"><text transform="matrix(1,0,0,1,0,12.826)" style="font-family:&quot;Open Sans&quot;;font-weight:400;font-size:12px;font-style:normal;fill:#000000;stroke:none;">private key</text></g><g transform="matrix(1,0,0,1,436,27.829)"><text transform="matrix(1,0,0,1,0,12.826)" style="font-family:&quot;Open Sans&quot;;font-weight:400;font-size:12px;font-style:normal;fill:#000000;stroke:none;">private key</text></g><rect x="384" y="66" width="168" height="36" transform="matrix(1,0,0,1,0,0)" fill="rgb(235,235,235)" vector-effect="non-scaling-stroke" stroke-width="3" stroke-dasharray="4" stroke="rgb(255,0,0)" stroke-linejoin="miter" stroke-linecap="square" stroke-miterlimit="3"/><g transform="matrix(1,0,0,1,436,75.829)"><text transform="matrix(1,0,0,1,0,12.826)" style="font-family:&quot;Open Sans&quot;;font-weight:400;font-size:12px;font-style:normal;fill:#000000;stroke:none;">master key</text></g><rect x="372" y="156" width="192" height="144" transform="matrix(1,0,0,1,0,0)" fill="rgb(232,232,232)"/><g transform="matrix(1,0,0,1,421,158.764)"><text transform="matrix(1,0,0,1,0.358,21.377)" style="font-family:&quot;Open Sans&quot;;font-weight:400;font-size:20px;font-style:normal;fill:#000000;stroke:none;">Bob's SKI</text></g><rect x="384" y="198" width="168" height="36" transform="matrix(1,0,0,1,0,0)" fill="rgb(255,0,0)" fill-opacity="0.5"/><g transform="matrix(1,0,0,1,436,207.829)"><text transform="matrix(1,0,0,1,0,12.826)" style="font-family:&quot;Open Sans&quot;;font-weight:400;font-size:12px;font-style:normal;fill:#000000;stroke:none;">private key</text></g><g transform="matrix(1,0,0,1,436,207.829)"><text transform="matrix(1,0,0,1,0,12.826)" style="font-family:&quot;Open Sans&quot;;font-weight:400;font-size:12px;font-style:normal;fill:#000000;stroke:none;">private key</text></g><rect x="384" y="246" width="168" height="36" transform="matrix(1,0,0,1,0,0)" fill="rgb(235,235,235)" vector-effect="non-scaling-stroke" stroke-width="3" stroke-dasharray="4" stroke="rgb(255,0,0)" stroke-linejoin="miter" stroke-linecap="square" stroke-miterlimit="3"/><g transform="matrix(1,0,0,1,436,255.829)"><text transform="matrix(1,0,0,1,0,12.826)" style="font-family:&quot;Open Sans&quot;;font-weight:400;font-size:12px;font-style:normal;fill:#000000;stroke:none;">master key</text></g><rect x="372" y="-216" width="192" height="96" transform="matrix(1,0,0,1,0,0)" fill="rgb(232,232,232)"/><g transform="matrix(1,0,0,1,421,-207.236)"><text transform="matrix(1,0,0,1,0.358,21.377)" style="font-family:&quot;Open Sans&quot;;font-weight:400;font-size:20px;font-style:normal;fill:#000000;stroke:none;">Bob's SKI</text></g><rect x="384" y="-168" width="168" height="36" transform="matrix(1,0,0,1,0,0)" fill="rgb(255,0,0)" fill-opacity="0.5"/><g transform="matrix(1,0,0,1,436,-158.171)"><text transform="matrix(1,0,0,1,0,12.826)" style="font-family:&quot;Open Sans&quot;;font-weight:400;font-size:12px;font-style:normal;fill:#000000;stroke:none;">private key</text></g><g transform="matrix(1,0,0,1,436,-158.171)"><text transform="matrix(1,0,0,1,0,12.826)" style="font-family:&quot;Open Sans&quot;;font-weight:400;font-size:12px;font-style:normal;fill:#000000;stroke:none;">private key</text></g><rect x="792" y="-420" width="192" height="672" transform="matrix(1,0,0,1,0,0)" fill="rgb(232,232,232)"/><g transform="matrix(1,0,0,1,794.5,-411.236)"><text transform="matrix(1,0,0,1,0.01,21.377)" style="font-family:&quot;Open Sans&quot;;font-weight:400;font-size:20px;font-style:normal;fill:#000000;stroke:none;">/pdi/eth/kitties/chat</text></g><rect x="804" y="-180" width="168" height="36" transform="matrix(1,0,0,1,0,0)" fill="rgb(0,150,136)" fill-opacity="0.5"/><g transform="matrix(1,0,0,1,833,-168.809)"><text transform="matrix(1,0,0,1,0.021,10.688)" style="font-family:&quot;Open Sans&quot;;font-weight:400;font-size:10px;font-style:normal;fill:#000000;stroke:none;">encrypted chat content</text></g><rect x="804" y="-84" width="168" height="36" transform="matrix(1,0,0,1,0,0)" fill="rgb(0,150,136)" fill-opacity="0.5"/><g transform="matrix(1,0,0,1,833,-72.809)"><text transform="matrix(1,0,0,1,0.021,10.688)" style="font-family:&quot;Open Sans&quot;;font-weight:400;font-size:10px;font-style:normal;fill:#000000;stroke:none;">encrypted chat content</text></g><rect x="804" y="-36" width="168" height="36" transform="matrix(1,0,0,1,0,0)" fill="rgb(235,235,235)"/><g transform="matrix(1,0,0,1,833,-24.809)"><text transform="matrix(1,0,0,1,0.021,10.688)" style="font-family:&quot;Open Sans&quot;;font-weight:400;font-size:10px;font-style:normal;fill:#000000;stroke:none;">encrypted chat content</text></g><rect x="804" y="-36" width="168" height="36" transform="matrix(1,0,0,1,0,0)" fill="rgb(0,150,136)" fill-opacity="0.5"/><g transform="matrix(1,0,0,1,833,-24.809)"><text transform="matrix(1,0,0,1,0.021,10.688)" style="font-family:&quot;Open Sans&quot;;font-weight:400;font-size:10px;font-style:normal;fill:#000000;stroke:none;">encrypted chat content</text></g><rect x="804" y="12" width="168" height="36" transform="matrix(1,0,0,1,0,0)" fill="rgb(0,150,136)" fill-opacity="0.5"/><g transform="matrix(1,0,0,1,833,23.191)"><text transform="matrix(1,0,0,1,0.021,10.688)" style="font-family:&quot;Open Sans&quot;;font-weight:400;font-size:10px;font-style:normal;fill:#000000;stroke:none;">encrypted chat content</text></g><rect x="804" y="108" width="168" height="36" transform="matrix(1,0,0,1,0,0)" fill="rgb(235,235,235)"/><rect x="804" y="62.171" width="168" height="36" transform="matrix(1,0,0,1,0,0)" fill="rgb(0,150,136)" fill-opacity="0.5"/><g transform="matrix(1,0,0,1,833,73.362)"><text transform="matrix(1,0,0,1,0.021,10.688)" style="font-family:&quot;Open Sans&quot;;font-weight:400;font-size:10px;font-style:normal;fill:#000000;stroke:none;">encrypted chat content</text></g><rect x="804" y="156" width="168" height="36" transform="matrix(1,0,0,1,0,0)" fill="rgb(0,150,136)" fill-opacity="0.5"/><g transform="matrix(1,0,0,1,833,167.191)"><text transform="matrix(1,0,0,1,0.021,10.688)" style="font-family:&quot;Open Sans&quot;;font-weight:400;font-size:10px;font-style:normal;fill:#000000;stroke:none;">encrypted chat content</text></g><rect x="804" y="204" width="168" height="36" transform="matrix(1,0,0,1,0,0)" fill="rgb(0,150,136)" fill-opacity="0.5"/><g transform="matrix(1,0,0,1,833,215.191)"><text transform="matrix(1,0,0,1,0.021,10.688)" style="font-family:&quot;Open Sans&quot;;font-weight:400;font-size:10px;font-style:normal;fill:#000000;stroke:none;">encrypted chat content</text></g><path d=" M 363.02 -392.502 Q 398.222 -397.782 407.023 -386.342 L 421.984 -362.58 L 421.984 -362.58" fill="none" vector-effect="non-scaling-stroke" stroke-width="1" stroke="rgb(0,0,0)" stroke-linejoin="miter" stroke-linecap="square" stroke-miterlimit="3"/><path d=" M 426.984 -361.675 C 426.984 -358.916 424.743 -356.675 421.984 -356.675 C 419.224 -356.675 416.984 -358.916 416.984 -361.675 C 416.984 -364.435 419.224 -366.675 421.984 -366.675 C 424.743 -366.675 426.984 -364.435 426.984 -361.675 Z " fill="rgb(0,0,0)" stroke="none"/><path d=" M 359.02 27.233 Q 415.823 -56.323 463.346 -54.563 L 541.89 -44.25 L 541.89 -44.25" fill="none" vector-effect="non-scaling-stroke" stroke-width="1" stroke="rgb(0,0,0)" stroke-linejoin="miter" stroke-linecap="square" stroke-miterlimit="3"/><path d=" M 546.89 -43.345 C 546.89 -40.585 544.65 -38.345 541.89 -38.345 C 539.13 -38.345 536.89 -40.585 536.89 -43.345 C 536.89 -46.104 539.13 -48.345 541.89 -48.345 C 544.65 -48.345 546.89 -46.104 546.89 -43.345 Z " fill="rgb(0,0,0)" stroke="none"/><path d=" M 361.26 -152.618 Q 385.954 -154.236 392.128 -150.73 L 402.623 -143.448 L 402.623 -143.448" fill="none" vector-effect="non-scaling-stroke" stroke-width="1" stroke="rgb(0,0,0)" stroke-linejoin="miter" stroke-linecap="square" stroke-miterlimit="3"/><path d=" M 407.623 -142.543 C 407.623 -139.783 405.382 -137.543 402.623 -137.543 C 399.863 -137.543 397.623 -139.783 397.623 -142.543 C 397.623 -145.303 399.863 -147.543 402.623 -147.543 C 405.382 -147.543 407.623 -145.303 407.623 -142.543 Z " fill="rgb(0,0,0)" stroke="none"/><path d=" M 359.5 -341.459 Q 394.702 -346.739 403.503 -335.299 L 418.464 -311.538 L 418.464 -311.538" fill="none" vector-effect="non-scaling-stroke" stroke-width="1" stroke="rgb(0,0,0)" stroke-linejoin="miter" stroke-linecap="square" stroke-miterlimit="3"/><path d=" M 423.464 -310.633 C 423.464 -307.873 421.223 -305.633 418.464 -305.633 C 415.704 -305.633 413.464 -307.873 413.464 -310.633 C 413.464 -313.392 415.704 -315.633 418.464 -315.633 C 421.223 -315.633 423.464 -313.392 423.464 -310.633 Z " fill="rgb(0,0,0)" stroke="none"/><path d=" M 352.46 -292.6 Q 382.408 -290.966 389.895 -294.506 L 402.623 -301.857 L 402.623 -301.857" fill="none" vector-effect="non-scaling-stroke" stroke-width="1" stroke="rgb(0,0,0)" stroke-linejoin="miter" stroke-linecap="square" stroke-miterlimit="3"/><path d=" M 407.623 -300.952 C 407.623 -298.192 405.382 -295.952 402.623 -295.952 C 399.863 -295.952 397.623 -298.192 397.623 -300.952 C 397.623 -303.712 399.863 -305.952 402.623 -305.952 C 405.382 -305.952 407.623 -303.712 407.623 -300.952 Z " fill="rgb(0,0,0)" stroke="none"/><path d=" M 413.183 -251.325 Q 524.043 -254.987 551.758 -247.053 L 598.874 -230.573 L 598.874 -230.573" fill="none" vector-effect="non-scaling-stroke" stroke-width="1" stroke="rgb(0,0,0)" stroke-linejoin="miter" stroke-linecap="square" stroke-miterlimit="3"/><path d=" M 603.874 -229.668 C 603.874 -226.908 601.633 -224.668 598.874 -224.668 C 596.114 -224.668 593.874 -226.908 593.874 -229.668 C 593.874 -232.428 596.114 -234.668 598.874 -234.668 C 601.633 -234.668 603.874 -232.428 603.874 -229.668 Z " fill="rgb(0,0,0)" stroke="none"/><path d=" M 378.861 126.492 Q 507.585 124.742 539.766 128.534 L 594.473 136.408 L 594.473 136.408" fill="none" vector-effect="non-scaling-stroke" stroke-width="1" stroke="rgb(0,0,0)" stroke-linejoin="miter" stroke-linecap="square" stroke-miterlimit="3"/><path d=" M 599.473 137.313 C 599.473 140.072 597.233 142.313 594.473 142.313 C 591.714 142.313 589.473 140.072 589.473 137.313 C 589.473 134.553 591.714 132.313 594.473 132.313 C 597.233 132.313 599.473 134.553 599.473 137.313 Z " fill="rgb(0,0,0)" stroke="none"/><path d=" M 395.582 -106.354 Q 515.374 -103.691 545.322 -109.462 L 596.233 -121.447 L 596.233 -121.447" fill="none" vector-effect="non-scaling-stroke" stroke-width="1" stroke="rgb(0,0,0)" stroke-linejoin="miter" stroke-linecap="square" stroke-miterlimit="3"/><path d=" M 601.233 -120.542 C 601.233 -117.782 598.993 -115.542 596.233 -115.542 C 593.474 -115.542 591.233 -117.782 591.233 -120.542 C 591.233 -123.301 593.474 -125.542 596.233 -125.542 C 598.993 -125.542 601.233 -123.301 601.233 -120.542 Z " fill="rgb(0,0,0)" stroke="none"/><path d=" M 355.98 287.908 Q 383.826 290.571 390.788 284.801 L 402.623 272.815 L 402.623 272.815" fill="none" vector-effect="non-scaling-stroke" stroke-width="1" stroke="rgb(0,0,0)" stroke-linejoin="miter" stroke-linecap="square" stroke-miterlimit="3"/><path d=" M 407.623 273.72 C 407.623 276.48 405.382 278.72 402.623 278.72 C 399.863 278.72 397.623 276.48 397.623 273.72 C 397.623 270.961 399.863 268.72 402.623 268.72 C 405.382 268.72 407.623 270.961 407.623 273.72 Z " fill="rgb(0,0,0)" stroke="none"/><line x1="603.274" y1="-198.011" x2="531.99" y2="-7.92" vector-effect="non-scaling-stroke" stroke-width="3" stroke-dasharray="6" stroke="rgb(255,153,0)" stroke-linejoin="miter" stroke-linecap="square" stroke-miterlimit="3"/><path d=" M 529.963 -27.179 L 531.99 -7.92 L 546.18 -21.097 Z " fill="rgb(255,153,0)" stroke="none"/><line x1="613.834" y1="-101.206" x2="547.831" y2="-4.4" vector-effect="non-scaling-stroke" stroke-width="3" stroke-dasharray="6" stroke="rgb(255,153,0)" stroke-linejoin="miter" stroke-linecap="square" stroke-miterlimit="3"/><path d=" M 550.433 -23.59 L 547.831 -4.4 L 564.743 -13.832 Z " fill="rgb(255,153,0)" stroke="none"/><line x1="616.475" y1="137.288" x2="560.151" y2="197.131" vector-effect="non-scaling-stroke" stroke-width="3" stroke-dasharray="6" stroke="rgb(255,153,0)" stroke-linejoin="miter" stroke-linecap="square" stroke-miterlimit="3"/><path d=" M 565.716 178.583 L 560.151 197.131 L 578.329 190.454 Z " fill="rgb(255,153,0)" stroke="none"/><line x1="806.565" y1="176.89" x2="562.792" y2="220.012" vector-effect="non-scaling-stroke" stroke-width="3" stroke-dasharray="6" stroke="rgb(255,153,0)" stroke-linejoin="miter" stroke-linecap="square" stroke-miterlimit="3"/><path d=" M 578.339 208.467 L 562.792 220.012 L 581.356 225.523 Z " fill="rgb(255,153,0)" stroke="none"/></svg>